<?xml version="1.0" encoding="UTF-8"?>
<svg version="1.1" xmlns="http://www.w3.org/2000/svg" xmlns:xlink="http://www.w3.org/1999/xlink" width="3300" height="2200">
 <!--glyph: "tab.scan.fill", point size: 100.0, template writer version: "8"-->
 <g id="Notes">
  <rect height="2200" id="artboard" style="fill:white;opacity:1" width="3300" x="0" y="0"/>
  <line id="" style="fill:none;stroke:black;opacity:0.5;stroke-width:0.5;" x1="263" x2="3036" y1="292" y2="292"/>
  <text id="template-version" style="stroke:none;fill:black;font-family:sans-serif;font-size:13px;font-weight:bold;" transform="matrix(1 0 0 1 263 322)">Template v.3.0</text>
  <text id="descriptive-name" style="stroke:none;fill:black;font-family:sans-serif;font-size:13px;" transform="matrix(1 0 0 1 263 1953)">tab.scan.fill</text>
  <text style="stroke:none;fill:black;font-family:sans-serif;font-size:13px;" transform="matrix(1 0 0 1 559.219 1993)">Ultralight</text>
  <text style="stroke:none;fill:black;font-family:sans-serif;font-size:13px;" transform="matrix(1 0 0 1 1575.99 1993)">Regular</text>
  <text style="stroke:none;fill:black;font-family:sans-serif;font-size:13px;" transform="matrix(1 0 0 1 2592.28 1993)">Black</text>
 </g>
 <g id="Guides">
  <line id="Capline-S" style="fill:none;stroke:#27AAE1;opacity:1;stroke-width:0.5;" x1="263" x2="3036" y1="696" y2="696"/>
  <line id="Baseline-S" style="fill:none;stroke:#27AAE1;opacity:1;stroke-width:0.5;" x1="263" x2="3036" y1="1088" y2="1088"/>
  <line id="Capline-M" style="fill:none;stroke:#27AAE1;opacity:1;stroke-width:0.5;" x1="263" x2="3036" y1="696" y2="696"/>
  <line id="Baseline-M" style="fill:none;stroke:#27AAE1;opacity:1;stroke-width:0.5;" x1="263" x2="3036" y1="1088" y2="1088"/>
  <line id="Capline-L" style="fill:none;stroke:#27AAE1;opacity:1;stroke-width:0.5;" x1="263" x2="3036" y1="696" y2="696"/>
  <line id="Baseline-L" style="fill:none;stroke:#27AAE1;opacity:1;stroke-width:0.5;" x1="263" x2="3036" y1="1088" y2="1088"/>
  <line id="left-margin" style="fill:none;stroke:#00AEEF;stroke-width:0.5;" x1="1040.15" x2="1040.15" y1="600.785" y2="1183.21"/>
  <line id="right-margin" style="fill:none;stroke:#00AEEF;stroke-width:0.5;" x1="2111.83" x2="2111.83" y1="600.785" y2="1183.21"/>
 </g>
 <g id="Symbols">
  <g id="Ultralight-M" transform="matrix(1 0 0 1 559.219 892.0)">
   <path d="M -299.20,-527.68 L -408.00,-527.68 C -474.10,-527.68 -527.68,-474.10 -527.68,-408.00 L -527.68,-299.20 C -527.68,-293.19 -522.81,-288.32 -516.80,-288.32 C -510.79,-288.32 -505.92,-293.19 -505.92,-299.20 L -505.92,-408.00 C -505.92,-462.08 -462.08,-505.92 -408.00,-505.92 L -299.20,-505.92 C -293.19,-505.92 -288.32,-510.79 -288.32,-516.80 C -288.32,-522.81 -293.19,-527.68 -299.20,-527.68 Z" style="fill:black;stroke:none;"/>
   <path d="M 299.20,-505.92 L 408.00,-505.92 C 462.08,-505.92 505.92,-462.08 505.92,-408.00 L 505.92,-299.20 C 505.92,-293.19 510.79,-288.32 516.80,-288.32 C 522.81,-288.32 527.68,-293.19 527.68,-299.20 L 527.68,-408.00 C 527.68,-474.10 474.10,-527.68 408.00,-527.68 L 299.20,-527.68 C 293.19,-527.68 288.32,-522.81 288.32,-516.80 C 288.32,-510.79 293.19,-505.92 299.20,-505.92 Z" style="fill:black;stroke:none;"/>
   <path d="M -299.20,505.92 L -408.00,505.92 C -462.08,505.92 -505.92,462.08 -505.92,408.00 L -505.92,299.20 C -505.92,293.19 -510.79,288.32 -516.80,288.32 C -522.81,288.32 -527.68,293.19 -527.68,299.20 L -527.68,408.00 C -527.68,474.10 -474.10,527.68 -408.00,527.68 L -299.20,527.68 C -293.19,527.68 -288.32,522.81 -288.32,516.80 C -288.32,510.79 -293.19,505.92 -299.20,505.92 Z" style="fill:black;stroke:none;"/>
   <path d="M 299.20,527.68 L 408.00,527.68 C 474.10,527.68 527.68,474.10 527.68,408.00 L 527.68,299.20 C 527.68,293.19 522.81,288.32 516.80,288.32 C 510.79,288.32 505.92,293.19 505.92,299.20 L 505.92,408.00 C 505.92,462.08 462.08,505.92 408.00,505.92 L 299.20,505.92 C 293.19,505.92 288.32,510.79 288.32,516.80 C 288.32,522.81 293.19,527.68 299.20,527.68 Z" style="fill:black;stroke:none;"/>
   <path d="M -50.27,-341.09 L -50.27,-134.64 C -50.27,-80.78 -125.66,-68.22 -125.66,-8.98 L -125.66,298.00 Q -125.66,341.09 -82.58,341.09 L 82.58,341.09 Q 125.66,341.09 125.66,298.00 L 125.66,-8.98 C 125.66,-68.22 50.27,-80.78 50.27,-134.64 L 50.27,-341.09 Z" style="fill:black;stroke:none;"/>
  </g>
  <g id="Regular-M" transform="matrix(1 0 0 1 1575.99 892.0)">
   <path d="M -299.20,-541.28 L -408.00,-541.28 C -481.61,-541.28 -541.28,-481.61 -541.28,-408.00 L -541.28,-299.20 C -541.28,-285.68 -530.32,-274.72 -516.80,-274.72 C -503.28,-274.72 -492.32,-285.68 -492.32,-299.20 L -492.32,-408.00 C -492.32,-454.57 -454.57,-492.32 -408.00,-492.32 L -299.20,-492.32 C -285.68,-492.32 -274.72,-503.28 -274.72,-516.80 C -274.72,-530.32 -285.68,-541.28 -299.20,-541.28 Z" style="fill:black;stroke:none;"/>
   <path d="M 299.20,-492.32 L 408.00,-492.32 C 454.57,-492.32 492.32,-454.57 492.32,-408.00 L 492.32,-299.20 C 492.32,-285.68 503.28,-274.72 516.80,-274.72 C 530.32,-274.72 541.28,-285.68 541.28,-299.20 L 541.28,-408.00 C 541.28,-481.61 481.61,-541.28 408.00,-541.28 L 299.20,-541.28 C 285.68,-541.28 274.72,-530.32 274.72,-516.80 C 274.72,-503.28 285.68,-492.32 299.20,-492.32 Z" style="fill:black;stroke:none;"/>
   <path d="M -299.20,492.32 L -408.00,492.32 C -454.57,492.32 -492.32,454.57 -492.32,408.00 L -492.32,299.20 C -492.32,285.68 -503.28,274.72 -516.80,274.72 C -530.32,274.72 -541.28,285.68 -541.28,299.20 L -541.28,408.00 C -541.28,481.61 -481.61,541.28 -408.00,541.28 L -299.20,541.28 C -285.68,541.28 -274.72,530.32 -274.72,516.80 C -274.72,503.28 -285.68,492.32 -299.20,492.32 Z" style="fill:black;stroke:none;"/>
   <path d="M 299.20,541.28 L 408.00,541.28 C 481.61,541.28 541.28,481.61 541.28,408.00 L 541.28,299.20 C 541.28,285.68 530.32,274.72 516.80,274.72 C 503.28,274.72 492.32,285.68 492.32,299.20 L 492.32,408.00 C 492.32,454.57 454.57,492.32 408.00,492.32 L 299.20,492.32 C 285.68,492.32 274.72,503.28 274.72,516.80 C 274.72,530.32 285.68,541.28 299.20,541.28 Z" style="fill:black;stroke:none;"/>
   <path d="M -50.27,-341.09 L -50.27,-134.64 C -50.27,-80.78 -125.66,-68.22 -125.66,-8.98 L -125.66,298.00 Q -125.66,341.09 -82.58,341.09 L 82.58,341.09 Q 125.66,341.09 125.66,298.00 L 125.66,-8.98 C 125.66,-68.22 50.27,-80.78 50.27,-134.64 L 50.27,-341.09 Z" style="fill:black;stroke:none;"/>
  </g>
  <g id="Black-M" transform="matrix(1 0 0 1 2592.28 892.0)">
   <path d="M -299.20,-563.04 L -408.00,-563.04 C -493.63,-563.04 -563.04,-493.63 -563.04,-408.00 L -563.04,-299.20 C -563.04,-273.66 -542.34,-252.96 -516.80,-252.96 C -491.26,-252.96 -470.56,-273.66 -470.56,-299.20 L -470.56,-408.00 C -470.56,-442.55 -442.55,-470.56 -408.00,-470.56 L -299.20,-470.56 C -273.66,-470.56 -252.96,-491.26 -252.96,-516.80 C -252.96,-542.34 -273.66,-563.04 -299.20,-563.04 Z" style="fill:black;stroke:none;"/>
   <path d="M 299.20,-470.56 L 408.00,-470.56 C 442.55,-470.56 470.56,-442.55 470.56,-408.00 L 470.56,-299.20 C 470.56,-273.66 491.26,-252.96 516.80,-252.96 C 542.34,-252.96 563.04,-273.66 563.04,-299.20 L 563.04,-408.00 C 563.04,-493.63 493.63,-563.04 408.00,-563.04 L 299.20,-563.04 C 273.66,-563.04 252.96,-542.34 252.96,-516.80 C 252.96,-491.26 273.66,-470.56 299.20,-470.56 Z" style="fill:black;stroke:none;"/>
   <path d="M -299.20,470.56 L -408.00,470.56 C -442.55,470.56 -470.56,442.55 -470.56,408.00 L -470.56,299.20 C -470.56,273.66 -491.26,252.96 -516.80,252.96 C -542.34,252.96 -563.04,273.66 -563.04,299.20 L -563.04,408.00 C -563.04,493.63 -493.63,563.04 -408.00,563.04 L -299.20,563.04 C -273.66,563.04 -252.96,542.34 -252.96,516.80 C -252.96,491.26 -273.66,470.56 -299.20,470.56 Z" style="fill:black;stroke:none;"/>
   <path d="M 299.20,563.04 L 408.00,563.04 C 493.63,563.04 563.04,493.63 563.04,408.00 L 563.04,299.20 C 563.04,273.66 542.34,252.96 516.80,252.96 C 491.26,252.96 470.56,273.66 470.56,299.20 L 470.56,408.00 C 470.56,442.55 442.55,470.56 408.00,470.56 L 299.20,470.56 C 273.66,470.56 252.96,491.26 252.96,516.80 C 252.96,542.34 273.66,563.04 299.20,563.04 Z" style="fill:black;stroke:none;"/>
   <path d="M -50.27,-341.09 L -50.27,-134.64 C -50.27,-80.78 -125.66,-68.22 -125.66,-8.98 L -125.66,298.00 Q -125.66,341.09 -82.58,341.09 L 82.58,341.09 Q 125.66,341.09 125.66,298.00 L 125.66,-8.98 C 125.66,-68.22 50.27,-80.78 50.27,-134.64 L 50.27,-341.09 Z" style="fill:black;stroke:none;"/>
  </g>
 </g>
</svg>
