<?xml version="1.0" encoding="UTF-8"?>
<svg version="1.1" xmlns="http://www.w3.org/2000/svg" xmlns:xlink="http://www.w3.org/1999/xlink" width="3300" height="2200">
 <!--glyph: "tab.scan.fill", point size: 100.0, template writer version: "8"-->
 <g id="Notes">
  <rect height="2200" id="artboard" style="fill:white;opacity:1" width="3300" x="0" y="0"/>
  <line id="" style="fill:none;stroke:black;opacity:0.5;stroke-width:0.5;" x1="263" x2="3036" y1="292" y2="292"/>
  <text id="template-version" style="stroke:none;fill:black;font-family:sans-serif;font-size:13px;font-weight:bold;" transform="matrix(1 0 0 1 263 322)">Template v.3.0</text>
  <text id="descriptive-name" style="stroke:none;fill:black;font-family:sans-serif;font-size:13px;" transform="matrix(1 0 0 1 263 1953)">tab.scan.fill</text>
  <text style="stroke:none;fill:black;font-family:sans-serif;font-size:13px;" transform="matrix(1 0 0 1 559.219 1993)">Ultralight</text>
  <text style="stroke:none;fill:black;font-family:sans-serif;font-size:13px;" transform="matrix(1 0 0 1 1575.99 1993)">Regular</text>
  <text style="stroke:none;fill:black;font-family:sans-serif;font-size:13px;" transform="matrix(1 0 0 1 2592.28 1993)">Black</text>
 </g>
 <g id="Guides">
  <line id="Capline-S" style="fill:none;stroke:#27AAE1;opacity:1;stroke-width:0.5;" x1="263" x2="3036" y1="696" y2="696"/>
  <line id="Baseline-S" style="fill:none;stroke:#27AAE1;opacity:1;stroke-width:0.5;" x1="263" x2="3036" y1="1088" y2="1088"/>
  <line id="Capline-M" style="fill:none;stroke:#27AAE1;opacity:1;stroke-width:0.5;" x1="263" x2="3036" y1="696" y2="696"/>
  <line id="Baseline-M" style="fill:none;stroke:#27AAE1;opacity:1;stroke-width:0.5;" x1="263" x2="3036" y1="1088" y2="1088"/>
  <line id="Capline-L" style="fill:none;stroke:#27AAE1;opacity:1;stroke-width:0.5;" x1="263" x2="3036" y1="696" y2="696"/>
  <line id="Baseline-L" style="fill:none;stroke:#27AAE1;opacity:1;stroke-width:0.5;" x1="263" x2="3036" y1="1088" y2="1088"/>
  <line id="left-margin" style="fill:none;stroke:#00AEEF;stroke-width:0.5;" x1="1093.73" x2="1093.73" y1="600.785" y2="1183.21"/>
  <line id="right-margin" style="fill:none;stroke:#00AEEF;stroke-width:0.5;" x1="2058.25" x2="2058.25" y1="600.785" y2="1183.21"/>
 </g>
 <g id="Symbols">
  <g id="Ultralight-M" transform="matrix(1 0 0 1 559.219 892.0)">
   <path d="M -269.28,-474.91 L -367.20,-474.91 C -426.69,-474.91 -474.91,-426.69 -474.91,-367.20 L -474.91,-269.28 C -474.91,-263.87 -470.53,-259.49 -465.12,-259.49 C -459.71,-259.49 -455.33,-263.87 -455.33,-269.28 L -455.33,-367.20 C -455.33,-415.87 -415.87,-455.33 -367.20,-455.33 L -269.28,-455.33 C -263.87,-455.33 -259.49,-459.71 -259.49,-465.12 C -259.49,-470.53 -263.87,-474.91 -269.28,-474.91 Z" style="fill:black;stroke:none;"/>
   <path d="M 269.28,-455.33 L 367.20,-455.33 C 415.87,-455.33 455.33,-415.87 455.33,-367.20 L 455.33,-269.28 C 455.33,-263.87 459.71,-259.49 465.12,-259.49 C 470.53,-259.49 474.91,-263.87 474.91,-269.28 L 474.91,-367.20 C 474.91,-426.69 426.69,-474.91 367.20,-474.91 L 269.28,-474.91 C 263.87,-474.91 259.49,-470.53 259.49,-465.12 C 259.49,-459.71 263.87,-455.33 269.28,-455.33 Z" style="fill:black;stroke:none;"/>
   <path d="M -269.28,455.33 L -367.20,455.33 C -415.87,455.33 -455.33,415.87 -455.33,367.20 L -455.33,269.28 C -455.33,263.87 -459.71,259.49 -465.12,259.49 C -470.53,259.49 -474.91,263.87 -474.91,269.28 L -474.91,367.20 C -474.91,426.69 -426.69,474.91 -367.20,474.91 L -269.28,474.91 C -263.87,474.91 -259.49,470.53 -259.49,465.12 C -259.49,459.71 -263.87,455.33 -269.28,455.33 Z" style="fill:black;stroke:none;"/>
   <path d="M 269.28,474.91 L 367.20,474.91 C 426.69,474.91 474.91,426.69 474.91,367.20 L 474.91,269.28 C 474.91,263.87 470.53,259.49 465.12,259.49 C 459.71,259.49 455.33,263.87 455.33,269.28 L 455.33,367.20 C 455.33,415.87 415.87,455.33 367.20,455.33 L 269.28,455.33 C 263.87,455.33 259.49,459.71 259.49,465.12 C 259.49,470.53 263.87,474.91 269.28,474.91 Z" style="fill:black;stroke:none;"/>
   <path d="M -45.24,-306.98 L -45.24,-121.18 C -45.24,-72.71 -113.10,-61.40 -113.10,-8.08 L -113.10,268.20 Q -113.10,306.98 -74.32,306.98 L 74.32,306.98 Q 113.10,306.98 113.10,268.20 L 113.10,-8.08 C 113.10,-61.40 45.24,-72.71 45.24,-121.18 L 45.24,-306.98 Z" style="fill:black;stroke:none;"/>
  </g>
  <g id="Regular-M" transform="matrix(1 0 0 1 1575.99 892.0)">
   <path d="M -269.28,-487.15 L -367.20,-487.15 C -433.45,-487.15 -487.15,-433.45 -487.15,-367.20 L -487.15,-269.28 C -487.15,-257.11 -477.29,-247.25 -465.12,-247.25 C -452.95,-247.25 -443.09,-257.11 -443.09,-269.28 L -443.09,-367.20 C -443.09,-409.11 -409.11,-443.09 -367.20,-443.09 L -269.28,-443.09 C -257.11,-443.09 -247.25,-452.95 -247.25,-465.12 C -247.25,-477.29 -257.11,-487.15 -269.28,-487.15 Z" style="fill:black;stroke:none;"/>
   <path d="M 269.28,-443.09 L 367.20,-443.09 C 409.11,-443.09 443.09,-409.11 443.09,-367.20 L 443.09,-269.28 C 443.09,-257.11 452.95,-247.25 465.12,-247.25 C 477.29,-247.25 487.15,-257.11 487.15,-269.28 L 487.15,-367.20 C 487.15,-433.45 433.45,-487.15 367.20,-487.15 L 269.28,-487.15 C 257.11,-487.15 247.25,-477.29 247.25,-465.12 C 247.25,-452.95 257.11,-443.09 269.28,-443.09 Z" style="fill:black;stroke:none;"/>
   <path d="M -269.28,443.09 L -367.20,443.09 C -409.11,443.09 -443.09,409.11 -443.09,367.20 L -443.09,269.28 C -443.09,257.11 -452.95,247.25 -465.12,247.25 C -477.29,247.25 -487.15,257.11 -487.15,269.28 L -487.15,367.20 C -487.15,433.45 -433.45,487.15 -367.20,487.15 L -269.28,487.15 C -257.11,487.15 -247.25,477.29 -247.25,465.12 C -247.25,452.95 -257.11,443.09 -269.28,443.09 Z" style="fill:black;stroke:none;"/>
   <path d="M 269.28,487.15 L 367.20,487.15 C 433.45,487.15 487.15,433.45 487.15,367.20 L 487.15,269.28 C 487.15,257.11 477.29,247.25 465.12,247.25 C 452.95,247.25 443.09,257.11 443.09,269.28 L 443.09,367.20 C 443.09,409.11 409.11,443.09 367.20,443.09 L 269.28,443.09 C 257.11,443.09 247.25,452.95 247.25,465.12 C 247.25,477.29 257.11,487.15 269.28,487.15 Z" style="fill:black;stroke:none;"/>
   <path d="M -45.24,-306.98 L -45.24,-121.18 C -45.24,-72.71 -113.10,-61.40 -113.10,-8.08 L -113.10,268.20 Q -113.10,306.98 -74.32,306.98 L 74.32,306.98 Q 113.10,306.98 113.10,268.20 L 113.10,-8.08 C 113.10,-61.40 45.24,-72.71 45.24,-121.18 L 45.24,-306.98 Z" style="fill:black;stroke:none;"/>
  </g>
  <g id="Black-M" transform="matrix(1 0 0 1 2592.28 892.0)">
   <path d="M -269.28,-506.74 L -367.20,-506.74 C -444.26,-506.74 -506.74,-444.26 -506.74,-367.20 L -506.74,-269.28 C -506.74,-246.30 -488.10,-227.66 -465.12,-227.66 C -442.14,-227.66 -423.50,-246.30 -423.50,-269.28 L -423.50,-367.20 C -423.50,-398.30 -398.30,-423.50 -367.20,-423.50 L -269.28,-423.50 C -246.30,-423.50 -227.66,-442.14 -227.66,-465.12 C -227.66,-488.10 -246.30,-506.74 -269.28,-506.74 Z" style="fill:black;stroke:none;"/>
   <path d="M 269.28,-423.50 L 367.20,-423.50 C 398.30,-423.50 423.50,-398.30 423.50,-367.20 L 423.50,-269.28 C 423.50,-246.30 442.14,-227.66 465.12,-227.66 C 488.10,-227.66 506.74,-246.30 506.74,-269.28 L 506.74,-367.20 C 506.74,-444.26 444.26,-506.74 367.20,-506.74 L 269.28,-506.74 C 246.30,-506.74 227.66,-488.10 227.66,-465.12 C 227.66,-442.14 246.30,-423.50 269.28,-423.50 Z" style="fill:black;stroke:none;"/>
   <path d="M -269.28,423.50 L -367.20,423.50 C -398.30,423.50 -423.50,398.30 -423.50,367.20 L -423.50,269.28 C -423.50,246.30 -442.14,227.66 -465.12,227.66 C -488.10,227.66 -506.74,246.30 -506.74,269.28 L -506.74,367.20 C -506.74,444.26 -444.26,506.74 -367.20,506.74 L -269.28,506.74 C -246.30,506.74 -227.66,488.10 -227.66,465.12 C -227.66,442.14 -246.30,423.50 -269.28,423.50 Z" style="fill:black;stroke:none;"/>
   <path d="M 269.28,506.74 L 367.20,506.74 C 444.26,506.74 506.74,444.26 506.74,367.20 L 506.74,269.28 C 506.74,246.30 488.10,227.66 465.12,227.66 C 442.14,227.66 423.50,246.30 423.50,269.28 L 423.50,367.20 C 423.50,398.30 398.30,423.50 367.20,423.50 L 269.28,423.50 C 246.30,423.50 227.66,442.14 227.66,465.12 C 227.66,488.10 246.30,506.74 269.28,506.74 Z" style="fill:black;stroke:none;"/>
   <path d="M -45.24,-306.98 L -45.24,-121.18 C -45.24,-72.71 -113.10,-61.40 -113.10,-8.08 L -113.10,268.20 Q -113.10,306.98 -74.32,306.98 L 74.32,306.98 Q 113.10,306.98 113.10,268.20 L 113.10,-8.08 C 113.10,-61.40 45.24,-72.71 45.24,-121.18 L 45.24,-306.98 Z" style="fill:black;stroke:none;"/>
  </g>
 </g>
</svg>
